<svg xmlns="http://www.w3.org/2000/svg" xmlns:xlink="http://www.w3.org/1999/xlink" width="251.437" height="51.412" viewBox="0 0 251.437 51.412">
  <defs>
    <radialGradient id="radial-gradient" cx="0.5" cy="0.5" r="0.468" gradientTransform="translate(-0.076) scale(1.153 1)" gradientUnits="objectBoundingBox">
      <stop offset="0" stop-color="#fff"/>
      <stop offset="1" stop-color="#f0f0f0"/>
    </radialGradient>
  </defs>
  <g id="Grupo_122" data-name="Grupo 122" transform="translate(-294 -14)">
    <g id="Grupo_119" data-name="Grupo 119" transform="translate(294 14)">
      <g id="Grupo_119-2" data-name="Grupo 119">
        <path id="Trazado_109" data-name="Trazado 109" d="M22.3,51.412,0,38.56V12.852L22.3,0,44.6,12.852V38.56ZM1.764,37.542,22.3,49.38,42.839,37.542V13.87L22.3,2.037,1.764,13.87Z" fill="url(#radial-gradient)"/>
      </g>
      <path id="Trazado_110" data-name="Trazado 110" d="M22.5,85.373h27L46.487,80.06,25.093,81.473Z" transform="translate(-13.619 -48.459)" fill="#51c1eb"/>
      <path id="Trazado_111" data-name="Trazado 111" d="M47.225,45.749l-1.389-4.867L36.43,40.46,22.5,61.4Z" transform="translate(-13.619 -24.49)" fill="#00aace"/>
      <path id="Trazado_112" data-name="Trazado 112" d="M22.51,36.17l1.31,5.27,23.411,1.713L45.968,38.27Z" transform="translate(-13.625 -21.893)" fill="#52bdc7"/>
      <g id="Grupo_120" data-name="Grupo 120" transform="translate(56.662 15.398)">
        <path id="Trazado_113" data-name="Trazado 113" d="M146.317,39.01h3.438a6.75,6.75,0,0,1,5.214,2.056,7,7,0,0,1,1.693,4.847,6.961,6.961,0,0,1-1.693,4.851,6.65,6.65,0,0,1-5.214,2.088h-2.933V59.93H143.55V39.01Zm7.417,6.908a4.3,4.3,0,0,0-.932-2.846,3.951,3.951,0,0,0-3.043-1.129h-2.933v7.95h2.933a3.934,3.934,0,0,0,3.043-1.1A4.32,4.32,0,0,0,153.734,45.918Z" transform="translate(-143.55 -39.01)" fill="#e7e7e5"/>
        <path id="Trazado_114" data-name="Trazado 114" d="M198.938,59.93h-3.691l-5.273-7.077h-2.4V59.93H184.31V39.01h6.2a6.656,6.656,0,0,1,5.214,2.084,7.091,7.091,0,0,1,1.693,4.851,7.058,7.058,0,0,1-1.693,4.82,5.875,5.875,0,0,1-2.424,1.607Zm-8.431-10.01a3.841,3.841,0,0,0,3.016-1.129,4.855,4.855,0,0,0,0-5.719,3.83,3.83,0,0,0-3.016-1.1h-2.933v7.95Z" transform="translate(-168.221 -39.01)" fill="#e7e7e5"/>
        <path id="Trazado_115" data-name="Trazado 115" d="M232.938,59.113a10.469,10.469,0,0,1-3.327-2.254,10.3,10.3,0,0,1-2.254-3.327,10.411,10.411,0,0,1-.817-4.062,10.664,10.664,0,0,1,.817-4.089,11.122,11.122,0,0,1,2.254-3.327,10.329,10.329,0,0,1,3.327-2.226A10.44,10.44,0,0,1,237,39.01a10.679,10.679,0,0,1,4.089.817,10.291,10.291,0,0,1,5.554,5.554,10.665,10.665,0,0,1,.817,4.089,10.5,10.5,0,0,1-.817,4.062,10.349,10.349,0,0,1-2.226,3.327,10.978,10.978,0,0,1-3.328,2.254A10.679,10.679,0,0,1,237,59.93,10.426,10.426,0,0,1,232.938,59.113Zm-1.014-14.719A7.143,7.143,0,1,0,237,42.278,7.148,7.148,0,0,0,231.924,44.394Z" transform="translate(-193.782 -39.01)" fill="#e7e7e5"/>
        <path id="Trazado_116" data-name="Trazado 116" d="M282.99,59.678l.789-3.185a5.386,5.386,0,0,0,1.382.17,4.729,4.729,0,0,0,2.988-.932,3.633,3.633,0,0,0,1.157-2.905V39.01h3.272V52.825a6.756,6.756,0,0,1-2.341,5.412,7.806,7.806,0,0,1-5.072,1.693A9.335,9.335,0,0,1,282.99,59.678Z" transform="translate(-227.95 -39.01)" fill="#e7e7e5"/>
        <path id="Trazado_117" data-name="Trazado 117" d="M320.562,47.524h7.077v2.96h-7.077V56.97h8.711v2.96H317.29V39.01h11.984v2.933h-8.711Z" transform="translate(-248.711 -39.01)" fill="#e7e7e5"/>
        <path id="Trazado_118" data-name="Trazado 118" d="M359,59.113a10.446,10.446,0,0,1-6.4-9.643,10.739,10.739,0,0,1,.817-4.089,10.61,10.61,0,0,1,2.258-3.3A9.88,9.88,0,0,1,359,39.827a10.588,10.588,0,0,1,8.6.2l-1.441,2.96a7.26,7.26,0,0,0-3.1-.707,7.192,7.192,0,0,0,0,14.384,6.868,6.868,0,0,0,3.185-.762,5.123,5.123,0,0,0,.762-.422l1.832,2.735a8.7,8.7,0,0,1-1.129.62,10.158,10.158,0,0,1-4.65,1.1A10.5,10.5,0,0,1,359,59.113Z" transform="translate(-270.084 -39.01)" fill="#e7e7e5"/>
        <path id="Trazado_119" data-name="Trazado 119" d="M411.786,41.943h-5.751V59.93h-3.3V41.943H396.98V39.01h14.8v2.933Z" transform="translate(-296.946 -39.01)" fill="#e7e7e5"/>
      </g>
      <g id="Grupo_121" data-name="Grupo 121" transform="translate(177.091 15.256)">
        <path id="Trazado_120" data-name="Trazado 120" d="M448.65,59.811l10.867-17.853h-8.5V38.65h14.4L454.551,56.5H465.13v3.308Z" transform="translate(-448.65 -38.65)" fill="#fcc659"/>
        <path id="Trazado_121" data-name="Trazado 121" d="M504.582,47.263h7.16v3h-7.16v6.56h8.81v3H501.27V38.65h12.122v2.964h-8.81Z" transform="translate(-480.5 -38.65)" fill="#fcc659"/>
        <path id="Trazado_122" data-name="Trazado 122" d="M555.478,59.811h-3.734l-5.333-7.16h-2.424v7.156H540.68V38.65h6.272a6.742,6.742,0,0,1,5.277,2.108,7.177,7.177,0,0,1,1.713,4.906,7.144,7.144,0,0,1-1.713,4.875,5.929,5.929,0,0,1-2.451,1.626Zm-8.526-10.125A3.889,3.889,0,0,0,550,48.546a4.213,4.213,0,0,0,.943-2.881A4.219,4.219,0,0,0,550,42.755a3.878,3.878,0,0,0-3.051-1.113h-2.964v8.04h2.964Z" transform="translate(-504.354 -38.65)" fill="#fcc659"/>
        <path id="Trazado_123" data-name="Trazado 123" d="M589.863,58.982a10.587,10.587,0,0,1-6.473-9.754,10.744,10.744,0,0,1,.829-4.133,11.119,11.119,0,0,1,2.281-3.367,10.569,10.569,0,0,1,7.472-3.079,10.849,10.849,0,0,1,4.137.825,10.439,10.439,0,0,1,5.617,5.621,10.815,10.815,0,0,1,.825,4.133,10.574,10.574,0,0,1-.825,4.105,10.406,10.406,0,0,1-2.254,3.367,11.15,11.15,0,0,1-3.363,2.281,10.834,10.834,0,0,1-4.137.825A10.537,10.537,0,0,1,589.863,58.982ZM588.837,44.1a7.228,7.228,0,1,0,5.135-2.139A7.242,7.242,0,0,0,588.837,44.1Z" transform="translate(-530.205 -38.65)" fill="#fcc659"/>
      </g>
    </g>
  </g>
</svg>
